# xmcd CD database file
#
# Track frame offsets:
#	150
#	26846
#	47722
#	61864
#	83288
#	99080
#	115065
#	130171
#	146546
#	159191
#	178134
#	190481
#	203405
#	220077
#	237366
#	256227
#
# Disc length: 3829 seconds
#
# Revision: 0
# Processed by: cddbd v1.5.2PL0 Copyright (c) Steve Scherf et al.
# Submitted via: CDex 1.51
#
DISCID=cc0ef310
DTITLE=Cool Tributes - The Chill-Out Sessions - Cool Tributes - The Chill-Out Sessions - CD 1
DYEAR=2009
DGENRE=Jazz
TTITLE0=Pete Kuzma feat. Bilal - High and Dry (Orig. by Radiohead)
TTITLE1=Tok Tok Tok - Walk On The Wild Side (Orig. by Lou Reed)
TTITLE2=Rosalia de Souza - Carolina Carol Bela (Orig. by Jorge Ben and Toqinho)
TTITLE3=Karen Aoki - Smooth Operator (Orig. by Sade)
TTITLE4=Juliet Topaz - Put Your Records On (Orig. by Corinne Bailey Rae)
TTITLE5=Matthieu Boré - Georgia On My Mind (Orig. by Ray Charles)
TTITLE6=Jamie Cullum - Devil May Care (Orig. by Frank Sinatra)
TTITLE7=Jill Scott feat. Al Jarreau and George Benson - God Bless The Child (Orig. by Billie Holiday)
TTITLE8=Jazzkantine - Highway To Hell (Orig. by AC/DC)
TTITLE9=Ginger Ale - Le Grand Sommeil (Orig. by Etienne Daho)
TTITLE10=Kill The Young - Girls Just Want To Have Fun (Orig. by Cindy Lauper)
TTITLE11=Musica Nuda - Like A Virgin (Orig. by Madonna)
TTITLE12=Solal feat. Melanie Cannon - Dancing Queen (Orig. by ABBA)
TTITLE13=Benny Berrigan  - Caravan (Orig. by Duke Ellington)
TTITLE14=Waldeck - Bei mir bist du schön (Orig. by The Andrew Sisters)
TTITLE15=The Field - Everybody's Got To Learn Sometime (Orig. by The Korgis)
EXTD=YEAR: 2009
EXTT0=
EXTT1=
EXTT2=
EXTT3=
EXTT4=
EXTT5=
EXTT6=
EXTT7=
EXTT8=
EXTT9=
EXTT10=
EXTT11=
EXTT12=
EXTT13=
EXTT14=
EXTT15=
PLAYORDER=
